<?xml version="1.0" encoding="utf-8"?>
<!-- Generator: Adobe Illustrator 20.1.0, SVG Export Plug-In . SVG Version: 6.00 Build 0)  -->
<svg version="1.1" id="Layer_1" xmlns="http://www.w3.org/2000/svg" xmlns:xlink="http://www.w3.org/1999/xlink" x="0px" y="0px"
	 viewBox="0 0 60 60" style="enable-background:new 0 0 60 60;" xml:space="preserve">
<style type="text/css">
	.st0{fill:#E75300;}
	.st1{fill:#FFFFFF;}
</style>
<circle class="st0" cx="30.5" cy="29.9" r="29"/>
<g>
	<g>
		<g>
			<g>
				<path class="st1" d="M18.9,15.8L19,16c0.2,0,0.3,0.1,0.5,0.1l0.1-0.5l-0.1-0.2l-0.6-0.9l-2.4-3.6l-0.4,0.7l2.2,3.3L18.9,15.8z"
					/>
				<path class="st1" d="M17.4,15.7c0.1,0,0.3,0.1,0.4,0.1l-0.2-0.3L16.1,13l-0.4,0.7l1.2,1.8C17.1,15.6,17.3,15.6,17.4,15.7z"/>
				<polygon class="st1" points="19.8,14.3 19.9,13.9 20,13.3 18.5,11.1 18.1,11.8 19.6,14 				"/>
				<path class="st1" d="M14.4,21l0.9,1.4l0.7,1.1c0.2,0,0.3,0.1,0.5,0.1l0.1-0.5l-0.9-1.3l-1-1.5l-0.6-1l-0.6-1l-0.4,0.7l0.6,0.9
					L14.4,21z"/>
				<path class="st1" d="M13.6,22.5l0.4,0.6c0.2,0,0.4,0.1,0.6,0.1c0.1,0,0.2,0,0.3,0.1L14.8,23L14,21.8l-0.7-1l-0.2-0.3l-0.4,0.7
					l0.2,0.2L13.6,22.5z"/>
				<polygon class="st1" points="16.9,21.8 17,20.9 16.9,20.6 15.8,19 15.5,18.6 15.2,19.3 15.3,19.6 16.4,21.1 				"/>
				<path class="st1" d="M38.5,25.3c0-0.4-0.1-0.9-0.4-1.2l-1.4-2c-0.8,0.1-1.5,0-2.3-0.1l1.5,2.1c0.7,1,0.8,2.3,0.2,3.2h0
					c0.7-0.2,1.5-0.7,2-1.1C38.3,25.9,38.5,25.6,38.5,25.3z"/>
				<path class="st1" d="M27.5,14.5l-1.7,1.1l0.2,1.2c1.2-1,2.5-1.9,3.9-2.7c1.7-1,3.5-1.9,5.1-2.5l-1-0.7c-0.9-0.6-1.9-1-3-0.9
					l-0.5,0c-0.8,0-1.6,0.3-2.3,0.8c-0.2,0.1-0.3,0.2-0.4,0.3l-2.3,2l0.2,1.7L27.5,14.5z"/>
				<path class="st1" d="M30.2,15.1l0.3,2.6l-1.5-1.9L28.9,16c-0.3,0.2-0.5,0.4-0.8,0.6c-0.3,0.2-0.5,0.5-0.5,0.9c0,0.2,0,0.4,0,0.6
					c0.1,0.7,0.7,1,1.2,1l3.7,0.2l0.9,1.2c1-0.2,1.9-0.6,2.7-0.9l0.2-1.5l0.5,1.2l0.1,0l-0.1,0c0.7-0.4,1.2-0.7,1.2-0.7l0.2-0.1
					l-0.6-0.9l-1-1.7l0.4-1l-1.1-2.4c-1.7,0.6-3.6,1.5-5.4,2.6C30.3,15,30.3,15.1,30.2,15.1z M32.9,15.7c0.2-0.3,0.5-0.5,0.9-0.5
					l2.2,0l-0.2,0.4c-0.2,0.3-0.5,0.5-0.9,0.5h-1.4h-0.1l-1,0.5L32.9,15.7z"/>
				<path class="st1" d="M38,14.7l-0.4,1l0.6,1c1.5-1.4,2.4-2.5,2.8-3.4c1.8-3.1-3.5-1.4-3.5-1.4l0,0c-0.2,0.1-0.5,0.1-0.8,0.2
					L38,14.7z"/>
				<path class="st1" d="M39.4,24.1c0.1-0.3,0.1-0.6,0.1-0.9c0-0.7-0.2-1.4-0.5-1.9c-0.4,0.2-0.7,0.4-1.1,0.5l1.1,1.5
					C39.1,23.6,39.3,23.9,39.4,24.1z"/>
				<path class="st1" d="M35,21c1,0.1,2.3,0.1,3.4-0.5l-0.5-0.7C37.2,20.1,36.2,20.6,35,21z"/>
				<path class="st1" d="M32.6,27.3h2l0.2-0.2c0.7-0.6,0.8-1.5,0.2-2.4l-3.3-4.4l-2.2-0.1l2.9,3.9c0.4,0.5,0.7,1.3,0.6,2
					C33,26.5,32.8,26.9,32.6,27.3z"/>
				<path class="st1" d="M24.6,13.3c-0.3,0.1-0.9,0.3-1.2,0.4l1.4,2L24.6,13.3z"/>
				<g>
					<polygon class="st1" points="38.5,35.7 35.8,28.4 33.5,28.4 					"/>
				</g>
				<polygon class="st1" points="18.1,34.5 16,43.6 21.1,39.3 				"/>
				<path class="st1" d="M24.1,46.3c-1.2,0.4-2.5,0.2-3.6-0.3l2.2-0.6l-3,0.1l0,0l0,0l-0.9,0c-0.6-0.1-1.4-0.9-1.7-1.4
					c0-0.1,0-0.1-0.1-0.2l5.4-4.4l13.2,0.3l0.4,1.4l0.4-2.1h0l0.3-1.5l3.2,0l1,1.3l-1.3,3.5l-3.9,0.7L24.1,46.3z"/>
				<g>
					<g>
						<path class="st1" d="M12.4,25.9c-0.3,1.4-0.5,2.7-0.5,4.1c0,4.1,1.4,8,3.8,11l0.3-1.3c-0.2-0.2-0.3-0.5-0.5-0.7h0.6l0.1-0.5
							h-1c-0.1-0.3-0.3-0.5-0.4-0.8h1.6l0.1-0.5h-2c-0.1-0.3-0.2-0.5-0.3-0.8h2.5l0.1-0.5H14c-0.1-0.3-0.2-0.5-0.3-0.8h3.2l0.1-0.5
							h-3.5c-0.1-0.3-0.1-0.5-0.2-0.8h3.8l0.1-0.5h-4c-0.1-0.3-0.1-0.5-0.1-0.8H17l-0.3-0.5h-3.6c0-0.3-0.1-0.5-0.1-0.8h3.2L15.8,31
							h-2.9c0-0.3,0-0.5,0-0.8h2.4L15,29.7h-2.1c0-0.3,0-0.5,0-0.8h1.5l-0.3-0.5H13c0-0.3,0.1-0.5,0.1-0.8h0.5L12.4,25.9z"/>
						<g>
							<polygon class="st1" points="30.1,46.1 28.4,46.1 26.6,46.6 30.4,46.6 							"/>
							<path class="st1" d="M41.3,16l-0.7-0.6l-0.7,0.7l0.8,0.7c0.2,0.1,0.3,0.3,0.5,0.4h-2.8l0.3,0.5h2.9c0.3,0.3,0.5,0.5,0.8,0.8
								h-3.4l0.1,0.2c0,0-0.1,0.1-0.3,0.2h4c0.2,0.3,0.4,0.5,0.6,0.8h-4.5l0.1,0.2c0.1,0.1,0.1,0.2,0.2,0.3h4.5
								c0.2,0.3,0.4,0.5,0.5,0.8h-4.6c0.1,0.2,0.2,0.3,0.2,0.5h4.7c0.2,0.3,0.3,0.5,0.4,0.8h-4.9c0,0.2,0.1,0.3,0.1,0.5h5.1
								c0.1,0.3,0.2,0.5,0.4,0.8h-5.4c0,0.2,0,0.3,0,0.5h5.6c0.1,0.3,0.2,0.5,0.3,0.8h-6.1c0,0.2-0.1,0.3-0.2,0.5h6.5
								c0.1,0.3,0.1,0.5,0.2,0.8h-7.2c-0.1,0.2-0.2,0.3-0.4,0.5h7.7c0.1,0.3,0.1,0.5,0.2,0.8h-8.5c-0.2,0.1-0.6,0.4-1,0.5h9.5
								c0,0.3,0.1,0.5,0.1,0.8H36.8l0.2,0.5H47c0,0.3,0,0.5,0,0.8h-9.8l0.2,0.5h9.7c0,0.3,0,0.5,0,0.8h-9.4l0.2,0.5H47
								c0,0.3,0,0.5-0.1,0.8h-8.8l0.2,0.5h8.5c0,0.3-0.1,0.5-0.1,0.8h-8.1l0.2,0.5h7.8c-0.1,0.3-0.1,0.5-0.2,0.8h-7.3l0.2,0.5h7
								c-0.1,0.3-0.2,0.5-0.3,0.8h-6.4l0.2,0.5h6c-0.1,0.3-0.2,0.5-0.3,0.8H41l0.4,0.5h3.9c-0.1,0.3-0.3,0.5-0.4,0.8H42l0.1,0.1
								L42,39h2.5c-0.2,0.3-0.3,0.5-0.5,0.8h-2.3l-0.2,0.5h2.2c-0.2,0.3-0.4,0.5-0.6,0.8h-1.8l-0.2,0.5h1.6
								c-0.2,0.3-0.5,0.5-0.8,0.8h-1.1l-0.2,0.4l0.8,0c-0.3,0.3-0.6,0.5-1,0.8h-0.7l0.3,0.4l-0.2,0.1h0c0,0-0.1,0.1-0.1,0.1
								l-0.4,0.3l0,0c0,0,0,0,0,0L39,44.1h0l-0.3-0.5h0l0,0l-1.1,0.2l0.6,0.9l0.1,0.2l0.1,0.1l-0.7,0.4c-0.6,0.3-1.2,0.6-1.8,0.8
								h-2.5l0.3,0.5h0.7c-0.5,0.1-1,0.2-1.5,0.3l-0.2-0.3h0l-0.3-0.5h0l-0.5-0.8h0l-0.1-0.1l-0.2,0.1l-0.9,0.2l0.4,0.6h0l0.6,1
								c-0.6,0.1-1.1,0.1-1.7,0.1c-1.3,0-2.6-0.2-3.9-0.4l-1.8,0.5c0,0,0,0-0.1,0c1.8,0.6,3.7,0.9,5.7,0.9c10,0,18.1-8.1,18.1-18.1
								C48.1,24.4,45.4,19.3,41.3,16z"/>
						</g>
					</g>
					<polygon class="st1" points="33.1,44.9 32.6,45 32.8,45.3 37.7,45.3 37.3,44.9 					"/>
				</g>
				<polygon class="st1" points="28.7,38.7 28.1,37.8 27.9,38.7 				"/>
				<path class="st1" d="M36.6,36.6l1.5,0l-5.7-8.2l-0.9-1.4l0.5-0.7c0-0.1,0.1-0.2,0.1-0.4c0-0.4-0.1-0.9-0.4-1.2l-3.4-4.7
					c-0.6,0-1.3-0.2-1.8-0.5l-5.5-8.1l-1,5.3l-5.4-1l3.2,4.7l-0.7,4l-5.4-1l10.3,15.2l0.1,0l1.2,0l-0.7-1.1l3.2,0.6l0.1,0.2l0.2,0.3
					l1.3,0l-0.7-1l-0.1-0.2l0-0.2h0L27,35l0.1-0.6l0,0l0,0l2.9,4.3l5.5,0.1l0.4-1.6l-0.6-0.9L34.9,38l-1.1-1.7l-0.1-0.2l0,0l0,0
					l0.3-1.6l0.3-1.5l0,0l0,0l1.3,1.9l0,0L36.6,36.6z M33.4,31.8l-0.1,0.3l-0.5,2.8l-1.1-1.7L31.6,33l0.3-1.6L31,30.1l-0.3,1.6
					l-1.1-1.7l-0.1-0.2l0.5-3l0-0.1l0,0l0,0L33.4,31.8z M31.8,28.5L31.8,28.5L31.8,28.5L31.8,28.5z M25.5,19.1L25.5,19.1L25.5,19.1
					L25.5,19.1z M25.8,20.5L25.8,20.5L25.8,20.5L25.8,20.5l3.4,5l-0.1,0.3l-0.5,2.8l-1.1-1.7l-0.1-0.2l0.3-1.6l-0.9-1.3l-0.3,1.6
					l-1.1-1.7l-0.1-0.2L25.8,20.5z M19.6,25.2l-0.3,1.6L18.1,25l0.6-3.1l3.4,5L21.4,30l-1.1-1.7l-0.1-0.2l0.3-1.6L19.6,25.2z
					 M19,20.5l3.2,0.6l0.1,0.2l1.2,1.7l-2.9-0.6l-0.3-0.1L19,20.5z M21.2,23.6l3.2,0.6l0.1,0.2l1.2,1.7l-2.9-0.6l-0.3-0.1L21.2,23.6
					z M26.4,27.4l0.1,0.2l1.2,1.7l-2.9-0.6l-0.3-0.1l-1.3-1.9L26.4,27.4z M21.5,14.2l3.4,5l-0.6,3.1l-1.1-1.7l-0.1-0.2l0.3-1.6
					l-0.9-1.3l-0.3,1.6L21,17.3L21.5,14.2z M16.9,17.3l3.2,0.6l1.3,1.9l-3.2-0.6L16.9,17.3z M14,25l3.2,0.6l1.3,1.9l-3.2-0.6L14,25z
					 M17.4,30l-1.3-1.9l3.2,0.6l0.1,0.2l1.2,1.7l-2.9-0.6L17.4,30z M19.5,33.2l-1.3-1.9l3.2,0.6l0.1,0.2l1.2,1.7l-2.9-0.6L19.5,33.2
					z M21.9,36.3l-0.3-0.1l-1.3-1.9l3.2,0.6l0.1,0.2l1.2,1.7L21.9,36.3z M25.7,36.3l-1.1-1.7l-0.1-0.2l0.3-1.6l-0.9-1.3l-0.3,1.6
					l-1.1-1.7l-0.1-0.2l0.6-3.1l0,0l0,0v0l3.4,5l0,0l0,0L25.7,36.3z M27,31.8l-0.3-0.1l-1.3-1.9l3.2,0.6l0.1,0.2l1.2,1.7L27,31.8z
					 M28.8,34.9L27.5,33l3.2,0.6l0.1,0.2l1.2,1.7L29.1,35L28.8,34.9z M34.1,38.7l-2.9-0.6L30.9,38l-1.3-1.9l3.2,0.6l0,0l0,0l0.6,0.8
					l0,0L34.1,38.7z M33.9,31.7L33.9,31.7L33.9,31.7L33.9,31.7z"/>
				<polygon class="st1" points="35.2,44.2 37,44.2 36.8,44 				"/>
			</g>
		</g>
	</g>
</g>
</svg>
