<?xml version="1.0" encoding="utf-8"?>
<!-- Generator: Adobe Illustrator 20.1.0, SVG Export Plug-In . SVG Version: 6.00 Build 0)  -->
<svg version="1.1" id="Layer_1" xmlns="http://www.w3.org/2000/svg" xmlns:xlink="http://www.w3.org/1999/xlink" x="0px" y="0px"
	 viewBox="0 0 60 60" style="enable-background:new 0 0 60 60;" xml:space="preserve">
<style type="text/css">
	.st0{fill:#A7A9AC;}
	.st1{fill:#FFFFFF;}
</style>
<circle class="st0" cx="30.5" cy="29.9" r="29"/>
<g>
	<g>
		<polygon class="st1" points="15.6,28 21.1,41.4 38.9,41.4 44.4,28 		"/>
		<path class="st1" d="M38.9,42.2H21.1c-0.3,0-0.6-0.2-0.8-0.5l-5.5-13.4c-0.1-0.3-0.1-0.5,0.1-0.8s0.4-0.4,0.7-0.4h28.8
			c0.3,0,0.5,0.1,0.7,0.4c0.2,0.2,0.2,0.5,0.1,0.8l-5.5,13.4C39.5,42,39.2,42.2,38.9,42.2z M21.7,40.6h16.7l4.9-11.8H16.8L21.7,40.6
			z"/>
	</g>
	<g>
		<path class="st1" d="M40.9,30.8H19.1c-0.3,0-0.5-0.1-0.7-0.4c-0.2-0.2-0.2-0.5-0.1-0.8l4.3-10.4c0.1-0.3,0.4-0.5,0.8-0.5h13.1
			c0.3,0,0.6,0.2,0.8,0.5l4.3,10.4c0.1,0.3,0.1,0.5-0.1,0.8C41.4,30.6,41.2,30.8,40.9,30.8z M20.3,29.1h19.3L36,20.3H24L20.3,29.1z"
			/>
	</g>
	<g>
		<path class="st1" d="M33.6,21.3h-7.2c-0.4,0-0.8-0.4-0.8-0.8v-1.9c0-0.4,0.4-0.8,0.8-0.8h7.2c0.4,0,0.8,0.4,0.8,0.8v1.9
			C34.4,20.9,34.1,21.3,33.6,21.3z M27.2,19.6h5.6v-0.2h-5.6C27.2,19.4,27.2,19.6,27.2,19.6z"/>
	</g>
</g>
</svg>
