<?xml version="1.0" encoding="utf-8"?>
<!-- Generator: Adobe Illustrator 20.1.0, SVG Export Plug-In . SVG Version: 6.00 Build 0)  -->
<!DOCTYPE svg PUBLIC "-//W3C//DTD SVG 1.1//EN" "http://www.w3.org/Graphics/SVG/1.1/DTD/svg11.dtd">
<svg version="1.1" id="Layer_1" xmlns="http://www.w3.org/2000/svg" xmlns:xlink="http://www.w3.org/1999/xlink" x="0px" y="0px"
	 viewBox="0 0 72 72" style="enable-background:new 0 0 72 72;" xml:space="preserve">
<style type="text/css">
	.st0{fill:#E75300;}
</style>
<g>
	<path class="st0" d="M36,10.1c-14.3,0-25.9,11.6-25.9,25.9S21.7,61.9,36,61.9S61.9,50.3,61.9,36S50.3,10.1,36,10.1z M47.5,39.8H35
		V21.1c0-1,0.8-1.7,1.7-1.7c1,0,1.7,0.8,1.7,1.7v15.2h9c1,0,1.7,0.8,1.7,1.7C49.2,39,48.4,39.8,47.5,39.8z"/>
	<path class="st0" d="M36,0C16.1,0,0,16.1,0,36s16.1,36,36,36s36-16.1,36-36S55.8,0,36,0z M36,65.1C20,65.1,6.9,52,6.9,36
		S20,6.9,36,6.9S65.1,20,65.1,36S52,65.1,36,65.1z"/>
</g>
</svg>
