<?xml version="1.0" encoding="utf-8"?>
<!-- Generator: Adobe Illustrator 20.1.0, SVG Export Plug-In . SVG Version: 6.00 Build 0)  -->
<!DOCTYPE svg PUBLIC "-//W3C//DTD SVG 1.1//EN" "http://www.w3.org/Graphics/SVG/1.1/DTD/svg11.dtd">
<svg version="1.1" id="Layer_1" xmlns="http://www.w3.org/2000/svg" xmlns:xlink="http://www.w3.org/1999/xlink" x="0px" y="0px"
	 viewBox="0 0 72 72" style="enable-background:new 0 0 72 72;" xml:space="preserve">
<style type="text/css">
	.st0{fill:#A7A9AC;}
</style>
<g>
	<path class="st0" d="M51.5,46.2c0-0.5-0.1-1-0.5-1.3l-3.7-3.7c-0.4-0.4-0.9-0.5-1.2-0.5c-0.6,0-1.2,0.3-1.7,0.8L43,42.9
		c-0.6,0.6-1.5,0.6-2.2,0.1c-4.2-3.4-8.3-7.4-11.7-11.7c-0.5-0.6-0.5-1.6,0.1-2.2l1.4-1.4c0.5-0.5,0.7-1,0.8-1.6
		c0-0.5-0.1-1-0.5-1.3L27.1,21c-0.4-0.4-0.9-0.5-1.2-0.5c-0.6,0-1.3,0.3-1.7,0.8l-2.3,2.3c-1.4,1.4-1.8,3.5-0.8,5
		c5.7,9,13.4,16.7,22.4,22.4c1.4,0.9,3.6,0.5,5-0.8l0.9-0.9l0,0l1.4-1.4C51.2,47.4,51.4,46.8,51.5,46.2z"/>
	<path class="st0" d="M36,0C16.2,0,0,16.2,0,36s16.2,36,36,36s36-16.2,36-36S55.9,0,36,0z M60.2,52.6c-0.2,0.4-0.6,0.6-1,0.7
		c-0.4,0.1-0.9,0-1.2-0.3c-0.7-0.5-0.9-1.5-0.4-2.3c3-4.3,4.6-9.4,4.6-14.7C62.1,21.6,50.4,9.9,36,9.9S9.9,21.6,9.9,36
		S21.6,62.1,36,62.1c6.7,0,11.2-1.7,12.9-5c0.7-1.4,0.8-2.8,0.7-3.8c-1.3,0.9-2.9,1.4-4.4,1.4c-1.3,0-2.5-0.4-3.6-1
		c-9.4-5.9-17.5-14-23.4-23.4c-1.7-2.8-1.2-6.6,1.3-9.1l2.3-2.3c2.1-2.1,5.6-2.2,7.6-0.3l3.7,3.7c1,1,1.5,2.3,1.4,3.8
		c-0.1,1.4-0.7,2.7-1.7,3.7l-0.3,0.3c2.7,3.3,5.9,6.4,9.1,9.1l0.3-0.3c2.1-2.1,5.6-2.2,7.6-0.3l3.7,3.7c1,1,1.5,2.3,1.4,3.8
		c-0.1,1.4-0.7,2.7-1.7,3.8l-0.6,0.6c0.6,1.6,0.9,4.4-0.3,7.1c-1.4,3.4-5.4,7.5-16.2,7.5C19.8,65.3,6.7,52.2,6.7,36S19.8,6.7,36,6.7
		S65.3,19.9,65.3,36C65.3,42,63.6,47.7,60.2,52.6z"/>
</g>
</svg>
