<?xml version="1.0" encoding="utf-8"?>
<!-- Generator: Adobe Illustrator 20.1.0, SVG Export Plug-In . SVG Version: 6.00 Build 0)  -->
<!DOCTYPE svg PUBLIC "-//W3C//DTD SVG 1.1//EN" "http://www.w3.org/Graphics/SVG/1.1/DTD/svg11.dtd">
<svg version="1.1" id="Layer_1" xmlns="http://www.w3.org/2000/svg" xmlns:xlink="http://www.w3.org/1999/xlink" x="0px" y="0px"
	 viewBox="0 0 72 72" style="enable-background:new 0 0 72 72;" xml:space="preserve">
<style type="text/css">
	.st0{fill:#E75300;}
</style>
<g>
	<path class="st0" d="M36,0C16.1,0,0,16.1,0,36s16.1,36,36,36s36-16.1,36-36S55.8,0,36,0z M36.1,49.7l-4.7,4.7
		c-1.6,1.6-3.8,2.5-6.1,2.5c-2.3,0-4.5-0.9-6.1-2.5l-1.5-1.5c-3.4-3.4-3.4-8.9,0-12.2l10-10c1.6-1.6,3.8-2.5,6.1-2.5
		c2.3,0,4.5,0.9,6.1,2.5l1.5,1.5c0.8,0.8,0.8,2.2,0,3.1c-0.8,0.8-2.2,0.8-3.1,0l-1.5-1.5c-1.6-1.6-4.5-1.6-6.1,0l-10,9.9
		c-1.7,1.7-1.7,4.4,0,6.1l1.5,1.5c1.6,1.6,4.5,1.6,6.1,0l4.7-4.7c0.8-0.8,2.2-0.8,3.1,0C37,47.5,37,48.8,36.1,49.7z M54.4,31.4
		l-9.9,10c-1.6,1.6-3.8,2.5-6.1,2.5c-2.3,0-4.5-0.9-6.1-2.5c-0.8-0.8-0.8-2.2,0-3.1c0.8-0.8,2.2-0.8,3.1,0c1.6,1.6,4.5,1.6,6.1,0
		l10-9.9c0.8-0.8,1.3-1.9,1.3-3.1c0-1.2-0.5-2.2-1.3-3.1l-1.5-1.5c-0.8-0.8-1.9-1.3-3.1-1.3s-2.2,0.5-3.1,1.3L39.4,25
		c-0.8,0.8-2.2,0.8-3.1,0c-0.8-0.8-0.8-2.2,0-3.1l4.3-4.3c1.6-1.6,3.8-2.5,6.1-2.5c2.3,0,4.5,0.9,6.1,2.5l1.5,1.5
		c1.6,1.6,2.5,3.8,2.5,6.1C56.9,27.6,56,29.8,54.4,31.4z"/>
</g>
</svg>
