<?xml version="1.0" encoding="utf-8"?>
<!-- Generator: Adobe Illustrator 20.1.0, SVG Export Plug-In . SVG Version: 6.00 Build 0)  -->
<svg version="1.1" id="Layer_1" xmlns="http://www.w3.org/2000/svg" xmlns:xlink="http://www.w3.org/1999/xlink" x="0px" y="0px"
	 viewBox="0 0 60 60" style="enable-background:new 0 0 60 60;" xml:space="preserve">
<style type="text/css">
	.st0{fill:#A7A9AC;}
	.st1{fill:#FFFFFF;}
</style>
<circle class="st0" cx="30.5" cy="29.9" r="29"/>
<path class="st1" d="M37.6,26.2L37.6,26.2c-0.1-2.6-1.6-4.9-3.7-6.2L32.8,6.8l1-1.5h-7.5l1,1.5l-0.7,13c-2.4,1.2-4,3.6-4.1,6.4h0
	v0.3v3.6v17.2v2.4v1.1c0,1.5,1.2,2.7,2.7,2.7h9.8c1.5,0,2.7-1.2,2.7-2.7l0-3.6V30.2h0v-3.6c0,0,0,0,0,0V26.2z M25.6,47.3
	c0,0.4-0.3,0.7-0.7,0.7c-0.4,0-0.7-0.3-0.7-0.7V29c0-0.4,0.3-0.7,0.7-0.7c0.4,0,0.7,0.3,0.7,0.7V47.3z M24.9,26.8L24.9,26.8
	c-0.2,0-0.4-0.1-0.5-0.2c-0.1-0.1-0.2-0.3-0.2-0.5c0-0.2,0.1-0.4,0.2-0.5c0.1-0.1,0.3-0.2,0.5-0.2h0c0.4,0,0.7,0.3,0.7,0.7
	S25.3,26.8,24.9,26.8z"/>
</svg>
