<svg id="Layer_1" xmlns="http://www.w3.org/2000/svg" viewBox="0 0 310.5 146.5"><style>.st0{fill:#fff}.st1{opacity:.8}</style><switch><g><path class="st0" d="M45.2 94.5h-7.7v-19h2.6v16.7h5.1v2.3zM55.4 94.5v-19H58v19h-2.6zM76.9 84.6c1.7.3 2.2 1.6 2.2 3v3.1c0 2.3-1.7 3.8-4.6 3.8h-4.8v-19h4.8c2.9 0 4.4 1.4 4.4 3.8v2.4c.2 1.2-.4 2.7-2 2.9zm-4.5-1h2.2c1.2 0 1.9-.5 1.9-1.7v-2.2c0-1.3-.6-2-1.9-2h-2.2v5.9zm2.3 2.2h-2.3v6.5h2.3c1.3 0 1.9-.6 1.9-2v-2.9c0-1.1-.7-1.6-1.9-1.6zM90 94.5v-19h8v2.3h-5.5v6h4.6V86h-4.6v6.3H98v2.3h-8zM116.7 94.5l-2.6-7.8h-2.2v7.8h-2.6v-19h4.8c2.9 0 4.6 1.2 4.6 4v3.2c0 1.9-.8 3.1-2.2 3.6l2.9 8.2h-2.7zm-4.9-10h2.1c1.4 0 2.2-.6 2.2-2.3V80c0-1.7-.8-2.3-2.2-2.3h-2.1v6.8zM138.1 77.7h-3.3v16.8h-2.6V77.7h-3.3v-2.3h9.2v2.3zM154.1 94.5h-2.6v-7l-4-12h2.7l2.6 9.2 2.6-9.2h2.6l-4 12v7zM189.9 94.5l-2.6-7.8h-2.2v7.8h-2.6v-19h4.8c2.9 0 4.6 1.2 4.6 4v3.2c0 1.9-.8 3.1-2.2 3.6l2.9 8.2h-2.7zm-4.8-10h2.1c1.4 0 2.2-.6 2.2-2.3V80c0-1.7-.8-2.3-2.2-2.3h-2.1v6.8zM202.5 94.5v-19h2.6v19h-2.6zM224.6 79.5v11c0 2.8-1.7 4-4.6 4h-4.7v-19h4.7c2.9 0 4.6 1.2 4.6 4zm-4.7-1.8h-2v14.5h2c1.4 0 2.2-.6 2.2-2.3V80c0-1.7-.8-2.3-2.2-2.3zM245.1 90.7c0 2.9-1.7 4-4.6 4h-.2c-2.9 0-4.6-1.1-4.6-4V79.3c0-2.7 1.7-4 4.6-4h.2c2.9 0 4.6 1.3 4.6 4v2.6h-2.6v-2.1c0-1.7-.8-2.3-2.2-2.3-1.4 0-2.2.6-2.2 2.3v10.4c0 1.7.8 2.3 2.2 2.3 1.4 0 2.2-.6 2.2-2.3V87h-2.3v-2.2h4.8v5.9zM256.1 94.5v-19h8v2.3h-5.5v6h4.6V86h-4.6v6.3h5.5v2.3h-8z"/><g class="st1"><path class="st0" d="M127.3 108.5H122v4.3h-1.4v-9.6h1.4v4h5.3v-4h1.4v9.6h-1.4v-4.3zM139.6 103c2.9 0 4.8 2.1 4.8 5s-2 5-4.8 5-4.8-2.1-4.8-5 1.9-5 4.8-5zm0 1.3c-2.1 0-3.4 1.6-3.4 3.7s1.3 3.7 3.4 3.7c2 0 3.4-1.6 3.4-3.7 0-2.2-1.4-3.7-3.4-3.7zM158.8 105.1l-3.1 7.6h-.7l-3.1-7.6v7.6h-1.4v-9.6h2.1l2.8 6.9 2.8-6.9h2.1v9.6h-1.4v-7.6zM166.7 103.2h6.5v1.3h-5v2.8h4.9v1.3h-4.9v3h5v1.3h-6.5v-9.7zM179.5 110.3c.6.7 1.7 1.4 3 1.4 1.6 0 2.1-.8 2.1-1.5 0-1-1.1-1.3-2.3-1.6-1.5-.4-3.3-.8-3.3-2.8 0-1.6 1.4-2.7 3.4-2.7 1.5 0 2.7.5 3.5 1.3l-.8 1.1c-.7-.8-1.7-1.1-2.8-1.1-1.1 0-1.8.5-1.8 1.4 0 .9 1 1.1 2.2 1.4 1.6.4 3.4.9 3.4 3 0 1.5-1 2.9-3.6 2.9-1.7 0-3-.6-3.8-1.5l.8-1.3z"/></g><g><path class="st0" d="M154.2 39.1l-13.8 7.7 10.6 4.1 9.7-8.2zM131.9 45.4L96.4 57.6h21.1l18.8-10.5zM138.4 47.9l-17.3 9.7H143l6.5-5.5zM199.3 44.5V37c0-.5-.4-.9-.9-.9h-9.5c-.4 0-.8-.1-1.1-.4l-7.8-6.5-16.1 13.3 27.3 15.2h23L200 45.9c-.5-.5-.7-.9-.7-1.4zM168.4 57.6h19.1l-25.1-14-9.6 8zM151.4 52.9l-5.7 4.7h18z"/></g></g></switch></svg>