<?xml version="1.0" encoding="utf-8"?>
<!-- Generator: Adobe Illustrator 20.1.0, SVG Export Plug-In . SVG Version: 6.00 Build 0)  -->
<svg version="1.1" id="Layer_1" xmlns="http://www.w3.org/2000/svg" xmlns:xlink="http://www.w3.org/1999/xlink" x="0px" y="0px"
	 viewBox="0 0 60 60" style="enable-background:new 0 0 60 60;" xml:space="preserve">
<style type="text/css">
	.st0{fill:#E75300;}
	.st1{fill:#FFFFFF;}
</style>
<circle class="st0" cx="30.5" cy="29.9" r="29"/>
<g>
	<g>
		<path class="st1" d="M20.9,47h12.4c3.7,0,6-1.7,6-6v-2.8c0-2.5-0.5-3.8-2.9-4.7c2.3-0.7,2.9-2,2.9-4.6v-2.6c0-4.3-2.3-6-6-6H20.9
			c-0.2,0-0.3,0.1-0.3,0.3v26C20.6,46.9,20.7,47,20.9,47z M26.5,25.3h6c0.6,0,1,0.3,1,1v3.8c0,0.7-0.3,1-1,1h-6.1v-5.8H26.5z
			 M26.5,35.8h6c0.6,0,1,0.4,1,1V41c0,0.7-0.4,1-1,1h-6V35.8z"/>
		<path class="st1" d="M20.9,17.2H38c0.2,0,0.3-0.1,0.3-0.3v-2.4l0,0l0,0c0-0.8-0.6-1.4-1.4-1.4H22c-0.8,0-1.4,0.6-1.4,1.4l0,0l0,0
			v2.4C20.6,17.1,20.8,17.2,20.9,17.2z"/>
	</g>
</g>
</svg>
