<?xml version="1.0" encoding="utf-8"?>
<!-- Generator: Adobe Illustrator 20.1.0, SVG Export Plug-In . SVG Version: 6.00 Build 0)  -->
<!DOCTYPE svg PUBLIC "-//W3C//DTD SVG 1.1//EN" "http://www.w3.org/Graphics/SVG/1.1/DTD/svg11.dtd">
<svg version="1.1" id="Layer_1" xmlns="http://www.w3.org/2000/svg" xmlns:xlink="http://www.w3.org/1999/xlink" x="0px" y="0px"
	 viewBox="0 0 72 72" style="enable-background:new 0 0 72 72;" xml:space="preserve">
<style type="text/css">
	.st0{fill:#E75300;}
</style>
<g>
	<polygon class="st0" points="32.5,39.3 32.8,56.5 50.8,20.5 15.4,39.6 	"/>
	<path class="st0" d="M35.4,0C15.6,0.3-0.3,16.7,0,36.6C0.3,56.4,16.7,72.3,36.6,72C56.4,71.7,72.3,55.3,72,35.4
		C71.7,15.6,55.3-0.3,35.4,0z M54.4,21.3L54.4,21.3L35.5,59.1c-0.6,1.1-1.7,1.8-2.9,1.8c0,0,0,0-0.1,0c-1.8,0-3.3-1.4-3.3-3.2L29,43
		l-14.7,0.2c0,0,0,0-0.1,0c-1.5,0-2.8-1-3.2-2.4c-0.4-1.5,0.3-3,1.6-3.7L49.8,17c1.3-0.7,2.8-0.5,3.8,0.5C54.7,18.4,55,20,54.4,21.3
		z"/>
</g>
</svg>
