<?xml version="1.0" encoding="utf-8"?>
<!-- Generator: Adobe Illustrator 20.1.0, SVG Export Plug-In . SVG Version: 6.00 Build 0)  -->
<svg version="1.1" id="Layer_1" xmlns="http://www.w3.org/2000/svg" xmlns:xlink="http://www.w3.org/1999/xlink" x="0px" y="0px"
	 viewBox="0 0 60 60" style="enable-background:new 0 0 60 60;" xml:space="preserve">
<style type="text/css">
	.st0{fill:#E75300;}
	.st1{fill:#FFFFFF;}
</style>
<circle class="st0" cx="30.5" cy="29.9" r="29"/>
<path class="st1" d="M45.1,27.5c-0.2-0.3-0.4-0.4-0.7-0.4h-3.8l-3.3-7.9c-0.2-0.3-0.5-0.5-0.8-0.5h-2.1v-0.1c0-0.4-0.4-0.8-0.8-0.8
	h-7.2c-0.4,0-0.8,0.4-0.8,0.8v0.1h-2.2c-0.4,0-0.7,0.2-0.8,0.5l-3.3,7.9h-3.7c-0.3,0-0.5,0.1-0.7,0.4c-0.2,0.3-0.2,0.5-0.1,0.8
	l5.5,13.4c0.2,0.3,0.5,0.5,0.8,0.5h17.8c0.3,0,0.6-0.2,0.8-0.5l5.5-13.4C45.3,28,45.3,27.7,45.1,27.5z M24,20.3h1.6v0.2
	c0,0.4,0.4,0.8,0.8,0.8h7.2c0.5,0,0.8-0.4,0.8-0.8v-0.2H36l2.8,6.8H21.1L24,20.3z"/>
</svg>
