<?xml version="1.0" encoding="utf-8"?>
<!-- Generator: Adobe Illustrator 20.1.0, SVG Export Plug-In . SVG Version: 6.00 Build 0)  -->
<svg version="1.1" id="Layer_1" xmlns="http://www.w3.org/2000/svg" xmlns:xlink="http://www.w3.org/1999/xlink" x="0px" y="0px"
	 viewBox="0 0 60 60" style="enable-background:new 0 0 60 60;" xml:space="preserve">
<style type="text/css">
	.st0{fill:#A7A9AC;}
	.st1{fill:#FFFFFF;}
</style>
<circle class="st0" cx="30.5" cy="29.9" r="29"/>
<g>
	<path class="st1" d="M27.4,9.2c-0.7,0-1.2,0.5-1.2,1.2v8.9c0,0.4-0.3,0.7-0.7,0.7c-0.4,0-0.7-0.3-0.7-0.7v-8.9
		c0-0.7-0.5-1.2-1.2-1.2s-1.2,0.5-1.2,1.2v8.9c0,0.4-0.3,0.7-0.7,0.7c-0.4,0-0.7-0.3-0.7-0.7v-8.9c0-0.7-0.5-1.2-1.2-1.2
		s-1.2,0.5-1.2,1.2v12c0,2.2,1.4,4,3.3,4.7v22.1c0,0.9,0.8,1.7,1.7,1.7c0.9,0,1.7-0.8,1.7-1.7V27.1c1.9-0.7,3.3-2.5,3.3-4.7v-12
		C28.6,9.7,28,9.2,27.4,9.2z"/>
	<path class="st1" d="M40.5,9.3c-0.2-0.1-0.4-0.1-0.6,0c-4.2,2.7-6.6,7.3-6.6,12.3c0,3.9,1.5,7.6,4.2,10.3v17.3
		c0,0.9,0.8,1.7,1.7,1.7s1.7-0.8,1.7-1.7V33.4V22.9V9.8C40.8,9.6,40.7,9.4,40.5,9.3z"/>
</g>
</svg>
